<svg xmlns="http://www.w3.org/2000/svg" width="64" height="64" xml:space="preserve"><path fill="#434A54" d="M26.5 4h-14v56h14a6.993 6.993 0 0 1-5.859-3.17 7.015 7.015 0 0 1 0-7.67A7.009 7.009 0 0 1 26.5 46c2.45 0 4.601 1.26 5.851 3.16.729 1.1 1.149 2.43 1.149 3.84s-.42 2.73-1.149 3.83A6.978 6.978 0 0 1 26.5 60h14V4h-14z"/><path fill="#967ADC" d="M31.5 7.98c0 2.76-2.239 5.01-5 5.01-2.77 0-5.01-2.25-5.01-5.01H31.5z"/><path fill="#AC92EC" d="m31.5 7.98 4 2.01v10a2 2 0 0 0 2 2v20.03h-22V21.99a2 2 0 0 0 2-2v-10l3.99-2.01c0 2.76 2.24 5.01 5.01 5.01 2.761 0 5-2.25 5-5.01z"/><path fill="#656D78" d="M51.49 1v61.99l-7.99-2.17v-.009l-3-.811V4l3-.82z"/><path fill="#FC6E51" d="M32.351 49.16A6.992 6.992 0 0 0 26.5 46a7.009 7.009 0 0 0-5.859 3.16 7.015 7.015 0 0 0 0 7.67 6.993 6.993 0 0 0 11.71 0c.729-1.1 1.149-2.42 1.149-3.83s-.42-2.74-1.149-3.84z"/><path fill="#545C66" d="M9.5 1h34v2.18l-3 .82h-28v56h28l3 .811V63h-34z"/><path fill="#AAB2BD" d="M51.49 1h3.01v61.99h-3.01z"/><g><path d="M43.5 64H9.499a1 1 0 0 1-1-1V1a1 1 0 0 1 1-1H43.5a1 1 0 0 1 1 1v2.181a1 1 0 1 1-2 0V2H10.499v60H42.5v-1.182a1 1 0 1 1 2 0V63a1 1 0 0 1-1 1z"/><path d="M40.499 61h-28a1 1 0 0 1-1-1V4a1 1 0 0 1 1-1h28a1 1 0 0 1 1 1v56a1 1 0 0 1-1 1zm-27-2h26V5h-26v54z"/><path d="M51.496 63.999c-.088 0-.177-.012-.263-.035l-10.997-2.999a1 1 0 0 1-.737-.965V4a1 1 0 0 1 .737-.965L51.233.036a1.002 1.002 0 0 1 1.263.965v61.998a1.003 1.003 0 0 1-1 1zm-9.997-4.763 8.997 2.453V2.311l-8.997 2.453v54.472z"/><path d="M54.501 63.999h-3.005a1 1 0 0 1-1-1V1.001a1 1 0 0 1 1-1h3.005a1 1 0 0 1 1 1v61.998a1 1 0 0 1-1 1zm-2.005-2h1.005V2.001h-1.005v59.998zM26.499 13.994a6.015 6.015 0 0 1-6.008-6.008 1 1 0 1 1 2 0c0 2.21 1.798 4.008 4.008 4.008s4.008-1.798 4.008-4.008a1 1 0 1 1 2 0 6.015 6.015 0 0 1-6.008 6.008z"/><path d="M31.508 8.986H21.49a1 1 0 1 1 0-2h10.018a1 1 0 1 1 0 2z"/><path d="M35.501 10.99a.995.995 0 0 1-.447-.106L31.06 8.88a.999.999 0 1 1 .897-1.787l3.994 2.004a.999.999 0 0 1-.45 1.893z"/><path d="M35.502 20.994a1 1 0 0 1-1-1V9.99a1 1 0 1 1 2 0v10.004a1 1 0 0 1-1 1z"/><path d="M37.501 22.993a3.003 3.003 0 0 1-2.999-2.999 1 1 0 1 1 2 0 1 1 0 0 0 .999.999 1 1 0 1 1 0 2z"/><path d="M37.503 43.025a1 1 0 0 1-1-1v-20.03a1 1 0 1 1 2 0v20.03a1 1 0 0 1-1 1zM17.505 10.99a1 1 0 0 1-.45-1.894l3.994-2.004a1.001 1.001 0 0 1 .897 1.787l-3.994 2.004a.983.983 0 0 1-.447.107z"/><path d="M17.504 20.994a1 1 0 0 1-1-1V9.99a1 1 0 1 1 2 0v10.004a1 1 0 0 1-1 1z"/><path d="M15.505 22.993a1 1 0 1 1 0-2 1 1 0 0 0 .999-.999 1 1 0 1 1 2 0 3.003 3.003 0 0 1-2.999 2.999z"/><path d="M15.503 43.025a1 1 0 0 1-1-1v-20.03a1 1 0 1 1 2 0v20.03a1 1 0 0 1-1 1z"/><g><path d="M37.503 43.025h-22a1 1 0 1 1 0-2h22a1 1 0 1 1 0 2z"/></g><g><path d="M26.499 8.986a1 1 0 0 1-1-1V3.994a1 1 0 1 1 2 0v3.992a1 1 0 0 1-1 1z"/></g><g><path d="M26.501 61c-4.411 0-8-3.589-8-8s3.589-8 8-8 8 3.589 8 8-3.589 8-8 8zm0-14c-3.309 0-6 2.691-6 6s2.691 6 6 6 6-2.691 6-6-2.691-6-6-6z"/></g><g><path d="M32.36 57.835c-.094 0-.19-.014-.285-.042-2.104-.626-3.574-2.598-3.574-4.793s1.468-4.166 3.57-4.792a1 1 0 1 1 .57 1.916C31.381 50.5 30.5 51.683 30.5 53s.882 2.5 2.145 2.877a.999.999 0 0 1-.285 1.958z"/></g><g><path d="M20.646 57.834a1 1 0 0 1-.285-1.958c1.26-.376 2.141-1.559 2.141-2.876s-.882-2.5-2.145-2.877a.999.999 0 1 1 .57-1.916c2.104.626 3.574 2.598 3.574 4.793s-1.468 4.166-3.57 4.792a1.014 1.014 0 0 1-.285.042z"/></g><g><path d="M26.501 61a1 1 0 0 1-1-1V46a1 1 0 1 1 2 0v14a1 1 0 0 1-1 1z"/></g><g><path d="M33.501 54h-14a1 1 0 1 1 0-2h14a1 1 0 1 1 0 2z"/></g><g><path d="M24.503 29a1 1 0 0 1-1-1v-8a1 1 0 1 1 2 0v8a1 1 0 0 1-1 1z"/></g><g><path d="M28.503 29a1 1 0 0 1-1-1v-8a1 1 0 1 1 2 0v8a1 1 0 0 1-1 1z"/></g><g><path d="M30.501 34.001h-8a1 1 0 1 1 0-2h8a1 1 0 1 1 0 2z"/></g><g><path d="M28.501 37.001h-4a1 1 0 1 1 0-2h4a1 1 0 1 1 0 2z"/></g></g></svg>