<svg xmlns="http://www.w3.org/2000/svg" width="512" height="512" xml:space="preserve"><path fill="#965353" d="M492.802 248.047a10.654 10.654 0 0 0-4.703-7.828l-96.887-64.591c-2.531-9.593-8.734-30.186-17.421-38.857-3.562-3.578-10.921-8.375-36.39-13.953-9.171-2.016-17.717-3.469-22.154-4.172-7.155-6.046-27.718-21.374-52.209-21.374-12.523 0-24.187 3.938-34.679 11.719-15.827 11.733-55.583 58.857-118.144 140.025-46.232 59.982-88.567 117.417-88.988 117.995a10.683 10.683 0 0 0-1.875 8.421 10.692 10.692 0 0 0 4.976 7.047l213.32 127.995a10.619 10.619 0 0 0 5.492 1.516c1.484 0 2.969-.297 4.359-.922a10.667 10.667 0 0 0 6.117-7.75l40.366-211.819c17.312 5.656 50.138 15.078 76.73 15.078 37.343 0 86.685-20 88.763-20.859a10.57 10.57 0 0 0 3.499-2.327l26.749-26.749a10.682 10.682 0 0 0 3.079-8.595z"/><path fill="#ED5564" d="M35.407 347.886a4115.16 4115.16 0 0 0-14.179 19.125 10.683 10.683 0 0 0-1.875 8.421 10.692 10.692 0 0 0 4.976 7.047l213.32 127.995a10.619 10.619 0 0 0 5.492 1.516c1.484 0 2.969-.297 4.359-.922a10.667 10.667 0 0 0 6.117-7.75l4.188-21.983L35.407 347.886z"/><path fill="#434A54" d="M349.808 181.346c0 5.891-4.781 10.656-10.672 10.656s-10.671-4.766-10.671-10.656 4.78-10.671 10.671-10.671 10.672 4.781 10.672 10.671z"/><path fill="#FFCE54" d="M216.47 469.334c0 5.891-4.773 10.656-10.664 10.656s-10.664-4.766-10.664-10.656 4.773-10.67 10.664-10.67c5.89 0 10.664 4.779 10.664 10.67zM173.807 444.664c0 5.891-4.773 10.672-10.664 10.672s-10.672-4.781-10.672-10.672 4.781-10.672 10.672-10.672c5.891 0 10.664 4.781 10.664 10.672zM131.145 419.993c0 5.891-4.781 10.672-10.671 10.672-5.891 0-10.664-4.781-10.664-10.672s4.773-10.656 10.664-10.656c5.89 0 10.671 4.766 10.671 10.656z"/><ellipse fill="#FFCE54" cx="77.811" cy="394.666" rx="10.664" ry="10.671"/><path fill="#7F4545" d="M264.468 10.681s-29.929 71.997-17.078 138.667l59.749-8.343c10.999-69.326-42.671-130.324-42.671-130.324z"/><path fill="#965353" d="M247.382 160.003c-5.016 0-9.476-3.547-10.46-8.641C223.609 82.334 253.351 9.65 254.624 6.588a10.679 10.679 0 0 1 8.109-6.437 10.689 10.689 0 0 1 9.749 3.484c.578.672 14.469 16.562 26.984 41.42 16.765 33.295 23.062 67.06 18.202 97.621-.922 5.828-6.391 9.796-12.202 8.874-5.812-.922-9.781-6.39-8.859-12.218 5.203-32.795-5.797-63.888-15.953-84.184-4.266-8.562-8.773-15.984-12.711-21.921-7.632 24.89-18.381 71.06-10.077 114.089 1.117 5.796-2.672 11.39-8.453 12.5-.687.125-1.367.187-2.031.187z"/><path fill="#434A54" d="M492.802 248.047a10.654 10.654 0 0 0-4.703-7.828l-28.967-19.312c6.265 15.655 17.077 37.312 29.014 37.312l1.578-1.578a10.681 10.681 0 0 0 3.078-8.594z"/><path opacity=".1" d="M244.187 277.937c-19.726-10.656 42.842 50.013 42.842 50.013l6.953-36.451c0-.001-30.077-2.892-49.795-13.562z"/></svg>